<svg width="190" height="56" viewBox="0 0 190 56" fill="none" xmlns="http://www.w3.org/2000/svg">
<g id="Frame" clip-path="url(#clip0_78_187)">
<g id="Group 2">
<path id="Vector" d="M71.6543 46.3871C69.4931 46.3871 67.7992 45.269 66.8813 43.2246C66.8229 43.091 66.7728 42.9408 66.7561 42.799C66.3306 40.0954 66.0635 37.4251 65.955 34.855C65.955 34.8049 65.955 34.7632 65.955 34.7132C66.0218 32.9942 66.1219 31.5422 66.2555 30.3239C65.6213 30.2405 65.0371 30.0903 64.4781 29.8817C63.4517 29.4978 62.2334 28.4548 62.2334 25.6427C62.2334 22.1547 65.3542 20.1353 71.5125 19.6513C71.5542 19.643 71.6043 19.643 71.646 19.643H74.7502C81.9431 19.643 84.872 23.2478 86.0653 26.2769C86.349 27.1113 86.4909 27.9708 86.4909 28.8887C86.4909 30.7912 85.4812 32.602 83.4285 34.371C85.9485 35.4809 88.0847 37.0079 88.0847 39.2359C88.0847 39.4695 88.0597 39.7115 88.0096 39.9535C87.6174 41.6308 86.4241 43.6835 82.9445 44.2092C82.861 44.2176 82.7776 44.2259 82.6941 44.2259C82.6107 44.2259 82.5356 44.2176 82.4521 44.2092C80.1491 43.8754 78.1297 43.1328 76.4357 41.9896C76.4357 42.073 76.4357 42.1565 76.4357 42.2399C76.3356 44.7433 74.7001 46.262 72.0465 46.3621C71.9631 46.3788 71.8129 46.3871 71.6543 46.3871Z" fill="#111111"/>
<path id="Vector_2" d="M91.147 46.6792C91.0719 46.6792 90.9884 46.6708 90.9133 46.6625C89.5949 46.4789 87.2918 45.6278 86.6326 42.0813C86.2488 40.0286 86.0652 38.6017 86.0652 37.7339C86.0652 35.7896 86.0652 30.7662 88.2765 28.5883C87.9928 28.4047 87.7424 28.1794 87.5338 27.8957C87.1834 27.4367 86.9914 26.8526 86.9914 26.2101C86.9914 25.8763 87.0415 25.5175 87.15 25.1503C87.2 24.9584 87.2584 24.7748 87.3085 24.5996C86.5825 23.6734 86.2237 22.7888 86.2237 21.9294C86.2237 20.0852 88.1346 19.5094 89.403 19.3008C89.9788 18.5081 90.9801 17.4734 92.382 17.4734C93.2248 17.4734 94.3429 17.8072 95.2275 19.2174C97.3136 19.4343 98.0729 20.8613 98.0729 22.0962V22.405C98.0729 22.9724 97.8476 23.4731 97.105 24.4744C97.2802 25.0335 97.3553 25.5425 97.3553 26.0265C97.3553 26.2351 97.3386 26.4437 97.3052 26.6357C97.1217 27.8039 96.2956 28.63 95.1357 28.8303C95.7615 29.4895 96.0953 30.3823 96.0953 31.4421C96.0953 31.609 96.0869 31.7759 96.0703 31.9511V32.3183C96.0703 32.4017 96.0619 32.4935 96.0536 32.577C95.6864 34.8967 95.6113 35.9899 95.6113 36.4989V38.2929C95.9201 42.1564 95.92 42.2733 95.92 42.3817C95.92 43.7085 95.3359 46.02 91.4224 46.6625C91.3306 46.6708 91.2388 46.6792 91.147 46.6792Z" fill="#111111"/>
<path id="Vector_3" d="M103.747 46.8961C103.23 46.8961 102.704 46.8794 102.204 46.8377C98.4985 46.5957 95.8617 44.6014 94.6017 41.0884C94.5683 41.0049 94.5516 40.9215 94.5349 40.8297C94.4097 40.1705 94.3513 39.4445 94.3513 38.6601C94.3513 37.0329 94.9187 35.4558 96.0453 33.9538C95.5362 32.8023 95.2776 31.584 95.2776 30.2906C95.2776 27.8456 96.2372 24.5078 100.785 22.4968C103.489 21.3119 106.034 20.7111 108.362 20.7111C108.846 20.7111 109.33 20.7361 109.797 20.7862C112.809 21.1283 114.87 22.3466 115.947 24.4077C116.389 25.2839 116.614 26.1183 116.614 26.8943C116.614 27.8122 116.306 29.1223 114.854 30.1821C113.827 30.9247 112.768 31.3002 111.708 31.3002C111.466 31.3002 111.216 31.2836 110.974 31.2418C111.249 31.8093 111.449 32.5352 111.449 33.4615C111.449 33.7285 111.433 34.0039 111.399 34.3043C111.391 34.3961 111.374 34.4878 111.357 34.5796C111.558 34.4545 111.766 34.321 111.975 34.1791C112.159 34.0539 112.367 33.9705 112.584 33.9288C112.96 33.8537 113.335 33.8203 113.686 33.8203C114.787 33.8203 117.416 34.2542 118.033 38.2763C118.083 38.61 118.108 38.9188 118.108 39.2192C118.108 41.1551 117.123 43.792 112.459 45.3691C109.472 46.3788 106.543 46.8961 103.747 46.8961Z" fill="#111111"/>
<path id="Vector_4" d="M121.663 46.8377C118.484 46.8377 116.581 44.9936 116.581 41.9145C116.581 40.7796 117.115 39.6614 118.2 38.5099C117.841 35.631 117.666 33.4448 117.666 31.851V29.2225C117.666 24.149 120.278 22.1129 122.472 21.2952C122.522 21.2785 122.581 21.2618 122.631 21.2451C123.54 21.0031 124.417 20.8863 125.218 20.8863C131.468 20.8863 136.324 23.5983 139.645 28.9471C139.679 29.0055 139.712 29.0556 139.737 29.1223C140.455 30.6577 140.822 32.2014 140.822 33.7118V34.7882C140.822 41.5223 134.48 45.5777 121.98 46.8294C121.922 46.8377 121.871 46.8377 121.813 46.8377H121.663ZM127.053 30.641C127.12 33.6701 127.287 35.3473 127.437 36.2569C131.192 35.2722 131.451 34.3376 131.451 34.3293C131.451 32.7271 129.974 31.4922 127.053 30.641Z" fill="#111111"/>
<path id="Vector_5" d="M152.296 45.511C148.624 45.511 145.437 44.3344 142.833 42.023C140.171 39.6531 138.819 36.7409 138.819 33.3697C138.819 29.9902 140.171 27.0779 142.833 24.7081C145.437 22.3967 148.624 21.2201 152.296 21.2201C155.959 21.2201 159.138 22.3967 161.75 24.7081C164.42 27.0696 165.772 29.9902 165.772 33.3697C165.772 36.7492 164.42 39.6615 161.75 42.0313C159.138 44.3344 155.959 45.511 152.296 45.511ZM152.212 30.8163C151.336 30.8163 150.652 31.0666 150.051 31.609C149.492 32.118 149.242 32.6437 149.242 33.328C149.242 34.0206 149.492 34.5546 150.051 35.0553C150.652 35.5977 151.336 35.848 152.212 35.848C153.088 35.848 153.773 35.5977 154.373 35.0553C154.933 34.5463 155.183 34.0122 155.183 33.328C155.183 32.6437 154.933 32.118 154.373 31.609C153.773 31.0666 153.088 30.8163 152.212 30.8163Z" fill="#111111"/>
<path id="Vector_6" d="M178.439 45.9115C172.781 45.9115 168.192 43.1495 164.796 37.6921C164.737 37.6087 164.696 37.5086 164.654 37.4168C164.061 35.8814 163.761 34.4879 163.761 33.2529C163.761 28.5132 166.64 24.7665 172.322 22.138C174.325 21.3035 176.411 20.8947 178.598 20.8947C182.67 20.8947 185.49 22.0963 186.984 24.4661C187.017 24.5162 187.042 24.5579 187.067 24.608C187.393 25.2588 187.551 26.0599 187.551 27.0529C187.551 27.879 187.309 29.5646 185.557 30.641C187.576 31.7008 188.744 33.2862 189.412 34.7048C189.479 34.8467 189.529 35.0052 189.554 35.1554L189.696 36.0817C189.712 36.1651 189.712 36.2569 189.712 36.3403V37.2666C189.712 40.0787 187.61 42.6238 183.287 45.0687C183.195 45.1188 183.087 45.1688 182.987 45.2022C181.535 45.6778 180.3 45.9115 179.215 45.9115H178.439ZM173.299 33.3947C173.299 33.4031 173.324 34.0957 175.26 35.3473C175.235 35.1554 175.218 34.9718 175.218 34.7883V33.5533C175.218 32.7522 175.46 31.5673 176.662 30.641C175.81 30.9498 174.884 31.4421 173.908 32.118C173.466 32.7605 173.332 33.0776 173.299 33.1778V33.3947Z" fill="#111111"/>
<g id="Group">
<path id="Vector_7" d="M75.2424 21.3202C80.2908 21.3202 83.5452 23.1811 85.0055 26.8944C85.2057 27.4868 85.3142 28.1544 85.3142 28.897C85.3142 30.8413 83.687 32.8273 80.4243 34.8467C84.7468 36.2652 86.908 37.7255 86.908 39.2442C86.908 39.3694 86.8913 39.4946 86.8663 39.6197C86.4741 41.272 85.2475 42.2566 83.1864 42.5654C79.6233 42.0396 76.8946 40.4709 75.0171 37.8507C75.0171 39.0273 75.0588 39.9201 75.1339 40.521C75.2174 41.1218 75.2507 41.6975 75.2507 42.2483C75.1923 43.817 74.2577 44.6348 72.4637 44.7015C72.3552 44.7099 72.2551 44.7182 72.1466 44.7182C70.6362 44.7182 69.5514 43.9923 68.8922 42.5403C68.475 39.8951 68.2163 37.3083 68.1078 34.7883C68.2163 32.1764 68.3915 30.1571 68.6502 28.7302L68.1078 28.7552C67.1816 28.7552 66.3305 28.6133 65.5544 28.3213C64.7784 28.0376 64.3945 27.1447 64.3945 25.6427C64.3945 23.1644 66.973 21.7208 72.1382 21.3119H75.2424V21.3202ZM75.2424 30.9748C76.928 30.4157 77.7624 29.8734 77.7624 29.356V29.331C77.7291 28.7969 76.928 28.4631 75.3592 28.3046L75.2424 30.9748Z" fill="#FFA943"/>
<path id="Vector_8" d="M91.339 29.2225H92.574C94.1428 29.3727 94.9272 30.1153 94.9272 31.4421C94.9272 31.5756 94.9188 31.7091 94.9021 31.851V32.3183C94.5934 34.2709 94.4348 35.6728 94.4348 36.4989V38.3597C94.6351 40.9382 94.7436 42.2733 94.7436 42.3818C94.7436 43.8003 93.7089 44.6765 91.6478 45.0103C90.0873 44.785 89.1277 43.7085 88.7689 41.781C88.4101 39.845 88.2349 38.5016 88.2349 37.7339C88.2349 32.0596 89.2696 29.2225 91.339 29.2225ZM92.8828 19.1423C93.6254 19.1423 94.2346 19.7181 94.7019 20.8696C94.8604 20.8613 95.019 20.8529 95.1692 20.8529C96.329 20.8529 96.9048 21.2618 96.9048 22.0879V22.3967C96.9048 22.5886 96.5043 23.181 95.7115 24.174C96.0286 24.8917 96.1872 25.5092 96.1872 26.0182C96.1872 26.135 96.1788 26.2435 96.1621 26.352C96.0704 26.9194 95.7115 27.2031 95.0774 27.2031C94.4432 27.2031 93.6171 26.8359 92.6074 26.11C91.556 26.9444 90.8133 27.3616 90.3794 27.3616C89.9455 27.3616 89.6117 27.2031 89.3864 26.8944C89.2446 26.7108 89.1778 26.4771 89.1778 26.2018C89.1778 26.0182 89.2112 25.8096 89.2696 25.5926C89.4198 25.0419 89.5783 24.5996 89.7452 24.2491C88.8524 23.3479 88.4018 22.5719 88.4018 21.9294C88.4018 21.387 89.2279 21.0282 90.8884 20.8529C91.5727 19.7181 92.2402 19.1423 92.8828 19.1423Z" fill="#FFA943"/>
<path id="Vector_9" d="M114.971 25.1837C115.288 25.8096 115.446 26.3854 115.446 26.8944C115.446 27.6621 115.088 28.3129 114.37 28.8303C113.636 29.3643 112.91 29.623 112.209 29.623C111.766 29.623 111.324 29.5145 110.89 29.3059C110.223 28.9805 109.488 28.8136 108.671 28.8136C108.112 28.8136 107.519 28.8887 106.893 29.0389C105.341 29.4228 104.573 29.89 104.573 30.4491C104.573 30.6327 104.849 30.7245 105.4 30.7245C105.7 30.7245 106.084 30.6911 106.543 30.6327C106.818 30.6077 107.077 30.591 107.31 30.591C108.237 30.591 108.963 30.8246 109.488 31.2919C110.022 31.7759 110.289 32.4935 110.289 33.4448C110.289 33.6451 110.273 33.862 110.248 34.0957C110.106 35.3724 109.205 36.307 107.552 36.8994C104.84 37.5169 103.489 38.101 103.489 38.6518C103.522 38.852 103.622 38.9605 103.797 38.9605H104.114C106.902 38.9605 109.997 37.8257 113.41 35.5643C113.686 35.5142 113.944 35.4809 114.195 35.4809C115.68 35.4809 116.581 36.4906 116.89 38.5183C116.923 38.7603 116.94 38.9856 116.94 39.2109C116.94 41.2386 115.438 42.7573 112.426 43.7753C109.605 44.7349 106.877 45.2106 104.256 45.2106C103.781 45.2106 103.305 45.1939 102.838 45.1605C99.7754 44.9602 97.7226 43.4081 96.6795 40.5126C96.5711 39.9535 96.521 39.336 96.521 38.6518C96.521 37.108 97.1969 35.6144 98.5404 34.1624C97.8144 32.9775 97.4556 31.6841 97.4556 30.2822C97.4556 27.4284 98.9576 25.3423 101.97 24.0155C104.465 22.914 106.768 22.3716 108.871 22.3716C109.296 22.3716 109.714 22.3967 110.131 22.4384C112.551 22.7305 114.17 23.64 114.971 25.1837Z" fill="#FFA943"/>
<path id="Vector_10" d="M125.727 22.5552C131.393 22.5552 135.732 24.9835 138.736 29.8316C139.353 31.15 139.662 32.4434 139.662 33.7118V34.7883C139.662 40.5543 133.879 44.0089 122.322 45.1688H122.164C119.886 45.1688 118.751 44.084 118.751 41.9145C118.751 41.08 119.318 40.1538 120.461 39.1274C120.044 35.9315 119.836 33.5032 119.836 31.851V29.2225C119.836 25.9014 121.071 23.7818 123.557 22.864C124.342 22.6637 125.068 22.5552 125.727 22.5552ZM126.194 28.7552L125.885 29.2225V30.616C125.985 34.9385 126.294 37.4668 126.812 38.2012H126.953C131.401 37.2415 133.621 35.9565 133.621 34.321C133.621 31.6758 131.401 29.8233 126.953 28.7552H126.194Z" fill="#FFA943"/>
<path id="Vector_11" d="M161.149 25.9598C163.452 28.0042 164.612 30.4741 164.612 33.3697C164.612 36.2652 163.46 38.7352 161.149 40.7796C158.846 42.824 156.059 43.8504 152.805 43.8504C149.542 43.8504 146.755 42.824 144.452 40.7796C142.149 38.7352 140.997 36.2652 140.997 33.3697C140.997 30.4741 142.149 28.0042 144.452 25.9598C146.755 23.9154 149.533 22.889 152.805 22.889C156.059 22.889 158.846 23.9154 161.149 25.9598ZM152.721 29.1474C151.436 29.1474 150.343 29.5562 149.442 30.374C148.541 31.1918 148.09 32.1764 148.09 33.328C148.09 34.4878 148.541 35.4808 149.442 36.2986C150.343 37.1164 151.436 37.5252 152.721 37.5252C154.006 37.5252 155.099 37.1164 156 36.2986C156.902 35.4808 157.352 34.4878 157.352 33.328C157.352 32.1764 156.902 31.1918 156 30.374C155.099 29.5562 154.006 29.1474 152.721 29.1474Z" fill="#FFA943"/>
<path id="Vector_12" d="M179.107 22.5552C182.586 22.5552 184.906 23.4814 186.074 25.3423C186.275 25.7512 186.383 26.3186 186.383 27.0446C186.383 28.5883 185.348 29.5145 183.287 29.8316C182.937 29.8316 181.952 29.4728 180.342 28.7552C180.083 28.7552 179.674 28.7051 179.107 28.5966C177.346 28.5966 175.377 29.3727 173.215 30.9164C172.498 31.9261 172.139 32.6437 172.139 33.0776V33.3864C172.139 34.6547 173.424 35.9982 176.002 37.4251C177.655 37.9425 178.739 38.1928 179.257 38.1928C180.4 38.0343 180.967 37.7756 180.967 37.4251C178.589 36.9745 177.396 36.09 177.396 34.7799V33.5449C177.396 32.2599 178.431 31.4421 180.5 31.075C184.405 31.075 187.034 32.5185 188.402 35.4057L188.553 36.332V37.2582C188.553 39.3944 186.692 41.5056 182.978 43.6084C181.702 44.0256 180.617 44.2342 179.724 44.2342H178.956C173.891 44.2342 169.819 41.7559 166.723 36.7993C166.198 35.4558 165.939 34.2709 165.939 33.2445C165.939 29.1891 168.467 25.9931 173.532 23.6483C175.276 22.9224 177.129 22.5552 179.107 22.5552Z" fill="#FFA943"/>
</g>
</g>
<path id="Vector_13" d="M45.0437 12.9423C46.6208 13.7517 48.0644 14.6196 49.3828 15.5375C49.7417 13.5515 48.7987 10.6643 48.2814 9.27074C48.1228 9.05379 47.9726 8.87021 47.8558 8.73669C45.4526 9.98003 45.0938 12.0995 45.0437 12.9423Z" fill="#BA8484"/>
<path id="Vector_14" d="M9.0038 34.2459C8.60327 33.8704 8.35293 33.328 8.35293 32.7355C8.35293 31.584 9.28752 30.6494 10.4391 30.6494C11.4404 30.6494 12.2748 31.3587 12.4751 32.3016C12.8172 31.6841 12.8923 31.2335 12.8923 31.2335C12.6837 31.075 12.4751 30.9164 12.2665 30.7579C11.0148 29.7899 9.59626 28.6968 7.97743 28.2712C6.71741 27.9374 5.87461 28.0209 5.2905 28.2211C5.18202 28.5049 4.79817 29.598 4.75645 30.6995C4.7481 31.0917 4.77314 31.4588 4.83155 31.8093C6.58389 34.0373 8.34459 34.2542 9.0038 34.2459Z" fill="white"/>
<path id="Vector_15" d="M28.5966 31.876C29.7314 33.1361 31.2585 33.9872 32.9357 34.2042C35.1386 34.4962 36.6991 33.6451 37.4751 33.0693C35.9147 32.9608 34.6797 31.6674 34.6797 30.0736C34.6797 28.4131 36.0232 27.0696 37.6837 27.0696C38.8603 27.0696 39.8867 27.7538 40.3707 28.7385C40.4124 28.2795 40.4541 27.6871 40.4875 26.9194C40.5709 24.8082 39.386 23.7068 38.635 23.2228C36.8242 23.9154 34.688 25.2255 32.2681 27.5369C31.5589 28.2211 30.7161 28.8053 29.9066 29.4311C29.1807 29.9902 28.4881 30.4408 27.8289 30.7662C28.0124 31.1667 28.2962 31.5339 28.5966 31.876Z" fill="white"/>
<path id="Vector_16" d="M13.8185 6.19997C12.1079 7.32648 8.47799 10.4724 6.66724 17.6236C8.66992 15.4707 10.998 13.8602 13.6182 12.8339C14.7447 12.3916 15.8545 12.0244 16.9477 11.7073C18.6833 10.0802 18.7 8.5865 18.3746 7.57682C17.4734 6.94263 16.4053 6.41693 15.1703 6.19997C14.7197 6.12487 14.2691 6.12487 13.8185 6.19997Z" fill="#FFA943"/>
<path id="Vector_17" d="M55.95 35.364C55.3659 41.4555 52.0948 45.7362 49.1909 48.3898C54.1559 44.835 57.2517 39.2192 57.5104 33.2111C57.7357 28.0626 55.9917 23.5816 52.2951 19.8015C54.0558 22.405 56.6843 27.6871 55.95 35.364Z" fill="#FFA943"/>
<path id="Vector_18" d="M49.3495 3.09582C48.6903 2.43661 48.0728 2.01938 47.5888 1.75236C47.0965 1.48533 46.5374 1.36851 45.9783 1.41023C40.9716 1.80242 34.8384 8.03577 32.5938 10.5057C33.6869 10.6476 34.5714 10.8312 35.3057 11.0398C36.7493 9.07049 43.6919 0.208622 49.3495 3.09582Z" fill="#FFDC9B"/>
<path id="Vector_19" d="M13.8186 6.19998C13.0843 6.3168 12.3833 6.6339 11.7825 7.12622C9.56289 8.95367 4.76479 13.7351 3.80518 21.4621C4.30585 20.6193 4.84824 19.8182 5.43236 19.0672C5.82455 18.5582 6.23343 18.0826 6.659 17.6236C8.4781 10.4724 12.108 7.32649 13.8186 6.19998Z" fill="#FEDD9F"/>
<path id="Vector_20" d="M16.9478 11.7073C18.4581 11.2734 19.9351 10.9563 21.3453 10.731C20.7946 9.89657 19.7932 8.59483 18.3747 7.58514C18.7001 8.59483 18.6834 10.0802 16.9478 11.7073Z" fill="#D8661A"/>
<path id="Vector_21" d="M52.8709 13.468C52.7541 13.443 52.6372 13.3846 52.5288 13.3095C52.195 13.0842 51.9613 12.7254 51.8695 12.3248C51.3689 10.222 49.6249 8.44465 48.7654 7.66861C49.6582 8.61154 52.0948 11.724 51.6025 17.2565C52.0281 17.6153 52.4286 17.9908 52.8208 18.3663C53.1963 16.9227 52.8709 13.468 52.8709 13.468Z" fill="#D8661A"/>
<path id="Vector_22" d="M49.3827 15.5375C49.6831 15.7461 49.9752 15.963 50.2672 16.18C50.3507 12.6753 49.1157 10.3973 48.2812 9.27075C48.7986 10.6643 49.7415 13.5598 49.3827 15.5375Z" fill="#F8B8BA"/>
<path id="Vector_23" d="M50.3008 41.5139C47.9142 44.543 44.7266 46.8043 41.1135 48.3981C41.3137 49.8668 41.1802 51.6108 39.9619 53.0043C42.799 52.0697 45.7113 50.7179 48.5985 48.7987C48.7987 48.6652 48.999 48.5317 49.1909 48.3898C52.0948 45.7362 55.3659 41.4555 55.95 35.364C56.6843 27.6871 54.0558 22.405 52.2951 19.7932C50.9433 18.408 49.3245 17.1229 47.4553 15.9297C49.9336 18.6917 59.1543 30.2655 50.3008 41.5139Z" fill="#D8661A"/>
<path id="Vector_24" d="M31.3503 43.2913C31.2418 43.7503 31.1167 44.1758 30.9832 44.568C32.7689 43.842 35.7646 44.3427 35.7646 44.3427C35.2639 44.0256 33.7368 43.1912 31.3503 43.2913Z" fill="#C2B7B8"/>
<path id="Vector_25" d="M5.79932 35.6895L5.80766 35.6978C5.80766 35.6978 5.80766 35.6978 5.79932 35.6895Z" fill="#C3874B"/>
<path id="Vector_26" d="M6.4087 34.4044C6.94275 34.8049 7.58527 35.0803 8.29456 35.2138C10.3974 35.6227 13.0926 35.3891 14.0356 32.0262C13.6517 31.7926 13.2762 31.5255 12.8924 31.2335C12.8924 31.2335 12.8173 31.6924 12.4752 32.3016C12.5085 32.4434 12.5169 32.5853 12.5169 32.7355C12.5169 33.887 11.5823 34.8216 10.4308 34.8216C9.87167 34.8216 9.371 34.6047 8.9955 34.2459C8.33628 34.2542 6.57559 34.0372 4.82324 31.8093C5.01517 32.894 5.54087 33.7619 6.4087 34.4044Z" fill="#C2B6B7"/>
<path id="Vector_27" d="M10.4389 30.6494C9.28737 30.6494 8.35278 31.584 8.35278 32.7355C8.35278 33.328 8.60312 33.8704 9.00365 34.2459C9.37916 34.6047 9.87983 34.8216 10.4389 34.8216C11.5905 34.8216 12.525 33.8871 12.525 32.7355C12.525 32.5853 12.5083 32.4435 12.4833 32.3016C12.2747 31.3587 11.4403 30.6494 10.4389 30.6494Z" fill="#2D1106"/>
<path id="Vector_28" d="M25.2506 31.4838C24.8584 31.4838 24.4746 31.4421 24.1241 31.3086C23.4398 31.0499 23.0393 30.6661 22.8057 30.2488C23.0143 30.8914 23.6485 31.8593 25.551 32.1347C25.6678 32.1514 25.7763 32.2265 25.8347 32.335C26.1017 32.8356 26.9696 34.3126 28.3715 35.1971C27.4702 34.2709 26.6274 33.0443 25.9098 31.4254C25.6845 31.4671 25.4676 31.4838 25.2506 31.4838Z" fill="#D8661A"/>
<path id="Vector_29" d="M44.3677 27.2031C44.3009 30.8079 42.8907 33.8119 40.2956 35.8981C38.8269 37.0746 37.0662 37.7672 35.2805 37.8924C35.2805 37.8924 42.5569 37.7172 44.6264 29.9317C44.6264 29.9317 45.853 25.6677 44.7599 23.0976C44.5012 22.9808 44.1841 22.8639 43.8086 22.7722C44.0089 23.4981 44.4011 25.167 44.3677 27.2031Z" fill="#D8661A"/>
<path id="Vector_30" d="M40.4875 26.9277C40.4541 27.6954 40.4208 28.2879 40.3707 28.7468C40.571 29.1474 40.6794 29.598 40.6794 30.0736C40.6794 31.7342 39.336 33.0776 37.6754 33.0776C37.6087 33.0776 37.5419 33.0776 37.4752 33.0693C36.6991 33.6451 35.147 34.4962 32.9441 34.2042C31.2668 33.9872 29.7315 33.1361 28.5966 31.876C28.2962 31.5423 28.0208 31.1667 27.8206 30.7829C27.637 30.8747 27.4451 30.9581 27.2615 31.0416C28.6884 34.1791 30.7912 35.9982 33.5199 36.4321C35.5643 36.7576 37.7088 36.1651 39.4111 34.805C41.6975 32.9692 42.8907 30.4241 42.9575 27.2198C42.9992 25.359 42.4902 23.2562 42.2983 22.5636C41.2886 22.5302 40.0536 22.6887 38.6267 23.2311C39.3777 23.7151 40.5626 24.8166 40.4875 26.9277Z" fill="#C2B6B7"/>
<path id="Vector_31" d="M40.6794 30.0736C40.6794 29.598 40.5709 29.1474 40.3706 28.7468C39.8783 27.7538 38.8603 27.0779 37.6837 27.0779C36.0232 27.0779 34.6797 28.4214 34.6797 30.0736C34.6797 31.6591 35.9147 32.9608 37.4751 33.0693C37.5419 33.0776 37.6086 33.0776 37.6754 33.0776C39.3359 33.0776 40.6794 31.7342 40.6794 30.0736Z" fill="#2D1106"/>
<path id="Vector_32" d="M24.583 29.9818C25.6594 30.3072 27.1948 29.7649 29.039 28.3379C29.84 27.7205 30.6244 27.0779 31.3754 26.4604C33.7119 24.5495 35.9148 22.7555 38.2263 21.8709C39.4279 21.412 40.7129 21.2868 41.9145 21.4871C41.9145 21.4871 37.275 19.9934 32.5854 24.0071C27.8958 28.0209 26.4939 29.2308 25.2088 29.1891C23.9238 29.1474 23.081 28.605 22.6971 27.3533C22.6971 27.3533 22.5803 27.7622 22.622 28.3129C22.7806 28.5632 23.4899 29.648 24.583 29.9818Z" fill="#FEDD9F"/>
<path id="Vector_33" d="M41.0217 28.096C41.0217 29.0139 40.279 29.7482 39.3695 29.7482C38.4599 29.7482 37.7173 29.0055 37.7173 28.096C37.7173 27.1781 38.4599 26.4438 39.3695 26.4438C40.279 26.4438 41.0217 27.1781 41.0217 28.096Z" fill="white"/>
<path id="Vector_34" d="M12.7922 31.7008C12.7922 32.1931 12.3917 32.5853 11.9077 32.5853C11.4154 32.5853 11.0232 32.1848 11.0232 31.7008C11.0232 31.2085 11.4237 30.8163 11.9077 30.8163C12.3917 30.8163 12.7922 31.2168 12.7922 31.7008Z" fill="white"/>
<path id="Vector_35" d="M17.0395 34.9218C19.0172 33.9955 22.088 33.6033 26.3437 35.9064C26.3437 35.9064 34.3377 37.1164 39.3778 44.1675C40.2039 45.3274 40.7963 46.6458 41.0467 48.0477C41.0717 48.1645 41.0884 48.2813 41.1051 48.3981C44.7266 46.8043 47.9059 44.543 50.2924 41.5139C59.1459 30.2572 49.9252 18.6833 47.4469 15.9297C46.3872 15.2538 45.2523 14.6112 44.0257 14.0021C43.8087 13.8936 43.6585 13.6766 43.6418 13.4346C43.6418 13.3929 43.55 12.3248 44.009 11.0398C44.4346 9.85485 45.4192 8.23602 47.7223 7.25137C47.9059 7.17627 48.1061 7.17627 48.2814 7.25137C48.3398 7.2764 48.4065 7.31812 48.4566 7.35985C48.4816 7.38488 48.5985 7.48501 48.7654 7.66025C49.6248 8.43629 51.3688 10.2137 51.8695 12.3165C51.9613 12.717 52.1949 13.0758 52.5287 13.3011C52.6372 13.3762 52.754 13.4346 52.8709 13.4597C52.8709 13.4597 53.1963 16.9143 52.8208 18.3663C52.9376 18.4831 53.0544 18.5916 53.1713 18.7084C53.7971 9.54611 51.4106 5.14855 49.3411 3.08746C43.6919 0.200257 36.7493 9.06213 35.2973 11.0398C36.7993 11.4653 37.6755 11.9994 38.4265 12.5334C38.4265 12.5334 37.5837 12.3582 36.1485 12.1579C35.556 12.0745 13.0509 9.13723 4.20568 26.7024C4.20568 26.7024 7.17632 24.8082 11.3986 28.0292C15.621 31.2502 17.4317 31.0583 18.1827 29.2058C18.2161 29.0639 18.2245 28.9805 18.2245 28.9805C18.358 29.164 19.1257 30.591 18.3747 31.7008C18.2245 32.2849 17.7405 33.3029 16.2051 33.5032C16.0215 33.5282 15.863 33.6367 15.7795 33.7952C15.1704 34.9051 12.4751 38.9772 6.7591 36.1985C6.42532 36.0566 6.10823 35.8897 5.80783 35.6895C5.80783 35.6895 5.79948 35.6895 5.79948 35.6811C5.72438 35.631 5.64093 35.5726 5.56583 35.5142C4.03879 34.3794 3.27944 32.6771 3.35454 30.591C3.37957 29.9735 3.47136 29.4144 3.5715 28.9638C3.37123 28.9554 3.17096 28.9805 2.97904 29.0222C2.66195 30.0486 1.70233 33.2946 1.4353 36.599C1.62723 40.1955 2.6536 43.4165 4.44767 45.6528C4.94834 46.287 5.60756 46.9379 6.39194 47.5971C6.08319 45.2105 6.27512 38.4348 17.0395 34.9218ZM22.597 28.2712C22.597 28.2712 22.6053 28.2879 22.6304 28.3213C22.5803 27.7705 22.7055 27.3616 22.7055 27.3616C23.081 28.605 23.9238 29.1557 25.2172 29.1974C26.5022 29.2391 27.9041 28.0292 32.5937 24.0155C37.2833 20.0018 41.9229 21.4954 41.9229 21.4954C43.3665 21.7291 44.6932 22.4384 45.6278 23.5899C45.6028 23.5649 45.3107 23.3396 44.7683 23.1059C45.8615 25.6844 44.6265 29.9484 44.6265 29.9484C42.5654 37.7422 35.2806 37.9091 35.2806 37.9091C35.072 37.9258 34.8551 37.9341 34.6464 37.9341C34.1958 37.9341 33.7536 37.9007 33.3113 37.8256C31.851 37.592 30.0319 36.9161 28.3797 35.2138C26.9778 34.321 26.11 32.8523 25.843 32.3433C25.7846 32.2348 25.6844 32.1597 25.5593 32.143C23.6567 31.8677 23.0225 30.8914 22.8139 30.2572C22.2966 29.3476 22.6137 28.3213 22.597 28.2712Z" fill="#FFA943"/>
<path id="Vector_36" d="M2.16947 29.3476C2.46152 28.9638 4.38076 25.8847 8.33606 26.9194C10.2303 27.4117 11.774 28.605 13.1341 29.648C14.3858 30.616 15.4706 31.4505 16.3635 31.367C16.7473 31.3336 17.0978 31.125 17.3064 30.9081C17.8822 30.3323 18.1075 29.5896 18.1909 29.2141C17.4399 31.0666 15.6375 31.2585 11.4068 28.0375C7.17617 24.8082 4.20553 26.7024 4.20553 26.7024C13.0507 9.13724 35.5558 12.0829 36.1483 12.158C34.8215 11.9744 32.9941 11.7658 30.8412 11.6573C26.8275 11.4487 20.6609 11.5822 14.1188 14.1439C8.47791 16.3552 4.17215 21.6373 2.29463 28.6384C1.56866 31.342 1.29329 34.079 1.4268 36.6157C1.69383 33.3113 2.6451 30.0653 2.97054 29.0389C2.52828 29.1474 2.16947 29.3476 2.16947 29.3476Z" fill="#FEDD9F"/>
<path id="Vector_37" d="M28.0877 45.1521C27.9876 44.8267 27.6455 44.6348 27.32 44.7349C27.1448 44.785 26.9445 44.9018 26.7192 45.1104C27.0447 45.4776 27.4869 45.9282 27.9459 46.2536C28.0877 45.9949 28.2129 45.6028 28.0877 45.1521Z" fill="white"/>
<path id="Vector_38" d="M41.1133 48.3982C41.0966 48.2813 41.0799 48.1562 41.0549 48.0477C40.8045 46.6458 40.2204 45.3274 39.386 44.1675C34.3459 37.1164 26.3518 35.9064 26.3518 35.9064C26.936 36.2235 27.2781 36.8494 27.228 37.5086C27.1112 39.2275 26.0014 42.3901 19.6345 43.283C19.6345 43.283 15.1368 42.7322 14.3441 38.4181C14.2022 37.6421 14.4609 36.841 15.0283 36.2986C15.4873 35.8564 16.1549 35.339 17.0394 34.9301C6.27495 38.4348 6.08303 45.2106 6.39178 47.6138C6.45853 47.6722 6.53363 47.7306 6.60873 47.789C15.4706 51.9946 30.2487 53.1796 41.1133 48.3982ZM16.2884 47.8641C16.1298 47.814 15.9629 47.7556 15.8044 47.6972C14.3858 47.1214 14.002 45.4943 14.002 45.4943C14.0854 45.6361 16.6221 48.5901 23.1976 44.9519C26.6689 43.0326 29.456 42.0814 31.734 42.0313C33.5949 41.9896 35.2554 43.0076 35.9564 44.4762C35.948 44.4679 35.8896 44.4178 35.7728 44.3511C35.7728 44.3511 32.7771 43.8504 30.983 44.5764C30.449 46.0951 29.7481 47.1214 29.4143 47.547C29.189 47.8391 28.8385 48.006 28.488 48.006C28.3462 48.006 28.2043 47.9809 28.0625 47.9225C27.3448 47.6388 26.6105 47.0046 26.0431 46.4205C25.2837 46.9462 21.4119 49.4162 16.2884 47.8641Z" fill="white"/>
<path id="Vector_39" d="M41.1134 48.3982C30.2489 53.1796 15.4708 51.9863 6.60889 47.7974C9.88828 50.4676 15.3456 53.1378 22.113 54.256C26.8193 55.0321 33.1861 55.2323 39.9619 53.0127C41.1802 51.6108 41.3137 49.8668 41.1134 48.3982Z" fill="#C2B6B7"/>
<path id="Vector_40" d="M28.0876 45.1521C28.2211 45.6027 28.0876 45.9949 27.9541 46.2536C28.1043 46.3621 28.2628 46.4622 28.4214 46.5373C28.7885 46.0367 29.4394 44.9853 29.865 43.4666C28.8219 43.6668 27.6537 44.0423 26.377 44.6849C26.4604 44.7933 26.5856 44.9435 26.7358 45.1104C26.9611 44.9018 27.1613 44.7933 27.3366 44.7349C27.6453 44.6348 27.9874 44.8267 28.0876 45.1521Z" fill="#C2B7B8"/>
<path id="Vector_41" d="M25.1338 45.3607C24.7249 45.6111 24.2993 45.8781 23.8737 46.1785C21.7375 47.6722 19.5596 48.0727 17.7822 48.0727C17.2398 48.0727 16.7559 48.006 16.2886 47.8641C21.4121 49.4078 25.2923 46.9462 26.0516 46.4122C25.6177 45.9782 25.2923 45.5694 25.1338 45.3607Z" fill="#C2B7B8"/>
<path id="Vector_42" d="M16.4804 32.7605C16.3969 32.7689 16.3135 32.7689 16.2301 32.7689C15.9213 32.7689 15.6209 32.7188 15.3205 32.627C14.728 34.5296 13.5932 35.7979 11.941 36.3904C11.19 36.6658 10.4223 36.7576 9.71299 36.7576C9.07881 36.7576 8.50304 36.6825 8.0274 36.5907C7.57679 36.5072 7.15957 36.3737 6.75903 36.2068C12.475 38.9855 15.1703 34.9134 15.7794 33.8036C15.8712 33.6451 16.0214 33.5282 16.205 33.5116C17.7488 33.3113 18.2244 32.3016 18.3746 31.7091C18.3579 31.7342 18.3329 31.7675 18.3162 31.7926C17.8906 32.3517 17.2564 32.6854 16.4804 32.7605Z" fill="#D8661A"/>
<path id="Vector_43" d="M19.084 55.0737C18.9087 55.032 18.7418 54.9903 18.575 54.9486L19.084 55.0737Z" fill="#D4854A"/>
<path id="Vector_44" d="M56.3005 22.7137C55.7665 21.8209 55.1573 20.9614 54.4647 20.1353C55.7832 6.2083 50.5678 1.77737 48.2564 0.517345C47.5304 0.125153 46.7043 -0.0500816 45.8699 0.00832995C39.6115 0.500656 32.2934 8.66993 30.8665 10.3388C28.7052 10.1719 25.9599 10.1386 22.8724 10.5141C22.1298 9.22901 19.6681 5.57412 15.4208 4.82311C13.827 4.5394 12.1748 4.99 10.898 6.04141C9.38769 7.28474 7.20977 9.41259 5.40736 12.475C3.24613 16.1466 2.18638 20.2104 2.23644 24.5412C1.72743 25.7345 1.29352 26.9861 0.95139 28.2712C0.509131 29.9151 0.225418 31.584 0.0919059 33.2362C-0.0499507 34.9468 -0.0165727 36.6491 0.175351 38.2679C0.534165 41.1801 1.42703 43.7419 2.77049 45.7446C2.81222 45.8113 2.86228 45.8781 2.90401 45.9449C2.90401 45.9449 2.90401 45.9532 2.91235 45.9532C7.627 51.761 16.7893 55.7663 27.4035 55.9916C27.4035 55.9916 27.4035 55.9916 27.4118 55.9916C27.6705 55.9916 27.9292 56 28.1879 56C29.039 56 29.8818 55.9833 30.7079 55.9416C30.7162 55.9416 30.7246 55.9416 30.7329 55.9416C34.8885 55.7246 38.8021 54.9152 42.2734 53.6635C42.7073 53.4966 43.1412 53.3214 43.5668 53.1295C44.6182 52.6789 45.6446 52.1699 46.6459 51.6191C46.7961 51.5357 46.938 51.4606 47.0798 51.3771C47.1132 51.3938 47.1382 51.4022 47.1716 51.4188C47.6556 51.1435 48.1229 50.8598 48.5735 50.5677C48.5485 50.551 48.5234 50.5427 48.5067 50.526C48.7988 50.3424 49.0909 50.1588 49.3829 49.9669C50.209 49.4162 50.9934 48.8154 51.7194 48.1728C51.7361 48.1645 51.7444 48.1478 51.7611 48.1395C52.3202 47.6471 52.8459 47.1298 53.3382 46.5874C56.6844 42.9492 58.6954 38.2262 58.9207 33.2695C59.0876 29.4478 58.2031 25.893 56.3005 22.7137ZM11.7826 7.1262C12.3834 6.63387 13.0843 6.31678 13.8186 6.19996C14.2609 6.12486 14.7198 6.1332 15.1704 6.2083C16.4054 6.42526 17.4735 6.94262 18.3747 7.58514C19.8016 8.59483 20.803 9.89657 21.3537 10.731C19.9351 10.9563 18.4665 11.2818 16.9478 11.7073C15.8547 12.0244 14.7365 12.3916 13.61 12.8338C10.9982 13.8602 8.66172 15.4624 6.65903 17.6236C6.23346 18.0825 5.82458 18.5582 5.43239 19.0672C4.84828 19.8182 4.30588 20.6193 3.80521 21.4621C4.76483 13.735 9.56292 8.95364 11.7826 7.1262ZM57.5105 33.2111C57.4687 34.1457 57.3603 35.072 57.185 35.9815C56.6343 38.8604 55.4327 41.5807 53.697 43.9505C52.4537 45.6445 50.9433 47.1465 49.1993 48.3981C48.9991 48.54 48.8071 48.6735 48.6069 48.807C45.7197 50.7263 42.8074 52.0781 39.9703 53.0127C33.1946 55.2406 26.8277 55.032 22.1214 54.256C15.354 53.1378 9.8967 50.4676 6.61731 47.7973C6.54221 47.7389 6.47545 47.6805 6.40035 47.6221C5.61597 46.9629 4.9651 46.3037 4.45608 45.6778C3.83859 44.9018 3.31289 44.0089 2.87897 43.0243C2.06121 41.1635 1.57723 38.9688 1.45206 36.6157C1.31855 34.1791 1.56888 31.5756 2.2281 28.9805C2.25313 28.8636 2.28651 28.7468 2.31989 28.63C4.1974 21.629 8.50317 16.3469 14.1441 14.1356C20.6862 11.5738 26.8527 11.4403 30.8665 11.6489C33.0193 11.7574 34.8468 11.966 36.1736 12.1496C37.6088 12.3499 38.4516 12.5251 38.4516 12.5251C37.7006 11.9827 36.8244 11.4487 35.3224 11.0314C34.5881 10.8228 33.7036 10.6392 32.6105 10.4974C34.8551 8.01906 40.9883 1.78571 45.995 1.40186C46.5625 1.36014 47.1132 1.47696 47.6055 1.74399C48.0895 2.01101 48.7154 2.42824 49.3662 3.08745C51.4273 5.15689 53.8222 9.55445 53.188 18.7084C53.0712 18.5916 52.9544 18.4747 52.8375 18.3662C52.4537 17.9907 52.0448 17.6236 51.6192 17.2564C52.1116 11.724 49.6666 8.60317 48.7821 7.66859C48.6069 7.48501 48.4984 7.38488 48.4734 7.36819C48.415 7.32646 48.3565 7.28474 48.2981 7.25971C48.1229 7.18461 47.9226 7.17626 47.739 7.25971C45.4443 8.24436 44.4513 9.86319 44.0257 11.0481C43.5668 12.3332 43.6586 13.4013 43.6586 13.443C43.6836 13.685 43.8255 13.8936 44.0424 14.0104C45.2607 14.6196 46.4039 15.2621 47.4637 15.938C49.3412 17.1313 50.9517 18.4247 52.3035 19.8015C55.9918 23.5816 57.7441 28.0626 57.5105 33.2111ZM50.2674 16.18C49.9837 15.963 49.6833 15.7461 49.3829 15.5375C48.0645 14.6196 46.6209 13.7517 45.0438 12.9423C45.0855 12.0912 45.4443 9.98002 47.8475 8.74503C47.9644 8.87854 48.1145 9.05378 48.2731 9.27908C49.1159 10.4056 50.3509 12.6753 50.2674 16.18Z" fill="#2D1106"/>
<path id="Vector_45" d="M22.8054 30.2489C23.0391 30.6577 23.4396 31.0499 24.1239 31.3086C24.4744 31.4421 24.8582 31.4838 25.2504 31.4838C25.4673 31.4838 25.6843 31.4671 25.9096 31.4338C26.6272 33.061 27.47 34.2876 28.3712 35.2055C30.0234 36.9078 31.8426 37.5753 33.3028 37.8173C33.7451 37.8924 34.1957 37.9258 34.638 37.9258C34.8466 37.9258 35.0635 37.9175 35.2721 37.9008C37.0662 37.7673 38.8186 37.083 40.2872 35.8981C42.8907 33.812 44.3009 30.8079 44.3677 27.2031C44.401 25.1754 44.0088 23.5065 43.8002 22.7722C44.1757 22.864 44.4928 22.9808 44.7515 23.0976C45.2939 23.3313 45.586 23.5649 45.611 23.5816C44.6848 22.43 43.358 21.7291 41.906 21.4871C40.7044 21.2868 39.4194 21.412 38.2178 21.871C35.9063 22.7555 33.7034 24.5579 31.3669 26.4604C30.6159 27.0779 29.8315 27.7121 29.0305 28.338C27.1863 29.7649 25.6593 30.3073 24.5745 29.9818C23.4897 29.648 22.7721 28.5633 22.6219 28.3213C22.6052 28.2879 22.5885 28.2712 22.5885 28.2712C22.6135 28.3213 22.2964 29.3476 22.8054 30.2489ZM32.2598 27.5452C34.6797 25.2255 36.8075 23.9154 38.6266 23.2311C40.0535 22.6887 41.2885 22.5302 42.2982 22.5636C42.4901 23.2562 42.9992 25.359 42.9574 27.2198C42.8907 30.4157 41.6974 32.9692 39.411 34.805C37.7087 36.1651 35.5642 36.7576 33.5198 36.4321C30.7995 35.9982 28.6967 34.1791 27.2698 31.0416C27.4533 30.9665 27.6369 30.883 27.8288 30.7829C28.4881 30.4491 29.1807 30.0069 29.8983 29.4478C30.716 28.8136 31.5505 28.2295 32.2598 27.5452Z" fill="#2D1106"/>
<path id="Vector_46" d="M23.8738 46.1785C24.2993 45.8781 24.7249 45.6028 25.1338 45.3608C25.2923 45.561 25.6261 45.9699 26.0517 46.4122C26.6191 46.9963 27.3451 47.6305 28.071 47.9142C28.2129 47.9642 28.3548 47.9976 28.4966 47.9976C28.8471 47.9976 29.1975 47.8391 29.4228 47.5387C29.7483 47.1131 30.4576 46.0867 30.9916 44.568C31.1335 44.1758 31.2586 43.7503 31.3588 43.2913C33.7453 43.1912 35.2723 44.0256 35.773 44.3427C35.8815 44.4178 35.9483 44.4596 35.9566 44.4679C35.2557 42.9993 33.5951 41.9896 31.7343 42.023C29.4562 42.073 26.6692 43.0243 23.1978 44.9435C16.6307 48.5817 14.0856 45.6194 14.0022 45.4859C14.0022 45.4859 14.3944 47.1215 15.8046 47.6889C15.9632 47.7556 16.1217 47.8057 16.2886 47.8558C16.7559 47.9976 17.2399 48.0644 17.7823 48.0644C19.5596 48.0727 21.7376 47.6722 23.8738 46.1785ZM26.7192 45.1104C26.569 44.9435 26.4522 44.7933 26.3604 44.6849C27.6371 44.0423 28.8054 43.6668 29.8484 43.4666C29.4228 44.9853 28.772 46.0367 28.4048 46.5373C28.2546 46.4622 28.0961 46.3621 27.9375 46.2536C27.4953 45.9198 27.0447 45.4776 26.7192 45.1104Z" fill="#2D1106"/>
<path id="Vector_47" d="M14.3526 38.4181C15.1453 42.7322 19.6347 43.283 19.6347 43.283C26.0015 42.3901 27.1114 39.2275 27.2282 37.5086C27.2699 36.8494 26.9278 36.2235 26.352 35.9064C22.088 33.6117 19.0255 33.9955 17.0479 34.9218C16.1717 35.3307 15.5041 35.8564 15.0369 36.2986C14.4611 36.841 14.2108 37.6421 14.3526 38.4181Z" fill="#2D1106"/>
<path id="Vector_48" d="M16.3551 31.3587C15.4623 31.4421 14.3858 30.6077 13.1258 29.6397C11.7657 28.5966 10.2303 27.4034 8.32772 26.9111C4.37243 25.8763 2.45319 28.9555 2.16113 29.3477C2.16113 29.3477 2.52829 29.1474 2.97889 29.0389C3.17082 28.9972 3.37109 28.9638 3.57135 28.9805C3.47122 29.4311 3.37109 29.9902 3.3544 30.6077C3.2793 32.6938 4.03865 34.3961 5.56569 35.5309C5.64079 35.5893 5.72424 35.6394 5.79934 35.6978L5.80768 35.7062C6.10809 35.9064 6.41683 36.0733 6.75061 36.2152C7.15115 36.3821 7.57672 36.5156 8.01898 36.599C8.49461 36.6908 9.07039 36.7659 9.70457 36.7659C10.4139 36.7659 11.1815 36.6741 11.9326 36.3988C13.5848 35.8063 14.7196 34.5379 15.3121 32.6354C15.6125 32.7272 15.9129 32.7772 16.2216 32.7772C16.3051 32.7772 16.3885 32.7772 16.472 32.7689C17.248 32.6938 17.8822 32.3684 18.3078 31.8093C18.3328 31.7842 18.3495 31.7509 18.3662 31.7258C19.1172 30.616 18.3495 29.1891 18.216 29.0055C18.216 29.0055 18.2076 29.089 18.1742 29.2308C18.0908 29.598 17.8655 30.349 17.2897 30.9248C17.0811 31.1167 16.739 31.3253 16.3551 31.3587ZM4.75627 30.6995C4.78965 29.598 5.1735 28.5132 5.28198 28.2211C5.86609 28.0209 6.70889 27.9374 7.96891 28.2712C9.58775 28.6968 11.0063 29.7899 12.258 30.7495C12.4666 30.9081 12.6752 31.075 12.8838 31.2252C13.2677 31.5172 13.6515 31.7842 14.027 32.0179C13.0841 35.3807 10.3888 35.6144 8.286 35.2055C7.56837 35.0636 6.93419 34.7966 6.40014 34.3961C5.53231 33.7536 5.00661 32.8857 4.82303 31.8009C4.77296 31.4588 4.74793 31.0917 4.75627 30.6995Z" fill="#2D1106"/>
</g>
<defs>
<clipPath id="clip0_78_187">
<rect width="190" height="56" fill="white"/>
</clipPath>
</defs>
</svg>
