<svg width="165" height="50" viewBox="0 0 165 50" fill="none" xmlns="http://www.w3.org/2000/svg">
<g id="Frame" clip-path="url(#clip0_405_2660)">
<g id="Group">
<g id="Group_2">
<g id="Group_3">
<path id="Vector" d="M71 40C69.41 40 67.94 39.75 66.59 39.24C65.25 38.73 64.08 38.01 63.11 37.07C62.13 36.13 61.37 35.03 60.82 33.76C60.27 32.49 60 31.09 60 29.58C60 28.06 60.27 26.67 60.82 25.4C61.37 24.13 62.14 23.03 63.14 22.09C64.14 21.15 65.31 20.42 66.65 19.92C67.99 19.41 69.47 19.16 71.09 19.16C72.88 19.16 74.48 19.46 75.91 20.05C77.34 20.65 78.55 21.51 79.52 22.64L76.55 25.4C75.8 24.61 74.99 24.03 74.13 23.66C73.27 23.29 72.32 23.1 71.28 23.1C70.32 23.1 69.44 23.26 68.63 23.58C67.82 23.9 67.13 24.34 66.54 24.92C65.95 25.5 65.5 26.18 65.19 26.96C64.87 27.75 64.71 28.62 64.71 29.58C64.71 30.5 64.87 31.36 65.19 32.16C65.51 32.96 65.96 33.64 66.54 34.22C67.13 34.8 67.82 35.25 68.61 35.57C69.41 35.9 70.28 36.06 71.25 36.06C72.17 36.06 73.07 35.91 73.94 35.6C74.81 35.29 75.66 34.78 76.49 34.07L79.14 37.44C78.03 38.28 76.75 38.92 75.31 39.36C73.88 39.78 72.44 40 71 40ZM74.89 36.83V29.26H79.15V37.44L74.89 36.83Z" fill="white"/>
<path id="Vector_2" d="M90.5 39.88C88.87 39.88 87.41 39.53 86.14 38.84C84.86 38.15 83.86 37.2 83.13 36C82.4 34.8 82.04 33.43 82.04 31.9C82.04 30.35 82.4 28.97 83.13 27.77C83.86 26.57 84.86 25.63 86.14 24.95C87.42 24.27 88.87 23.93 90.5 23.93C92.15 23.93 93.62 24.27 94.91 24.95C96.2 25.63 97.2 26.57 97.93 27.77C98.66 28.97 99.02 30.35 99.02 31.9C99.02 33.46 98.66 34.83 97.93 36.02C97.2 37.21 96.19 38.15 94.91 38.84C93.62 39.54 92.15 39.88 90.5 39.88ZM90.5 36.2C91.27 36.2 91.94 36.03 92.53 35.7C93.12 35.36 93.59 34.87 93.94 34.22C94.3 33.57 94.47 32.8 94.47 31.92C94.47 31.02 94.29 30.25 93.94 29.62C93.58 28.99 93.11 28.5 92.53 28.17C91.94 27.83 91.28 27.67 90.53 27.67C89.78 27.67 89.11 27.84 88.51 28.17C87.91 28.51 87.44 28.99 87.08 29.62C86.72 30.25 86.55 31.02 86.55 31.92C86.55 32.8 86.73 33.57 87.08 34.22C87.44 34.87 87.91 35.37 88.51 35.7C89.11 36.03 89.77 36.2 90.5 36.2Z" fill="white"/>
<path id="Vector_3" d="M102.33 39.65V19.5H111.06C112.86 19.5 114.42 19.79 115.73 20.38C117.04 20.97 118.04 21.81 118.75 22.9C119.46 23.99 119.82 25.29 119.82 26.79C119.82 28.31 119.46 29.61 118.75 30.69C118.04 31.77 117.03 32.61 115.73 33.21C114.42 33.81 112.87 34.1 111.06 34.1H104.9L107.03 32V39.66H102.33V39.65ZM107.03 32.51L104.9 30.29H110.8C112.22 30.29 113.3 29.98 114.03 29.37C114.76 28.76 115.12 27.89 115.12 26.78C115.12 25.67 114.76 24.81 114.03 24.2C113.3 23.6 112.23 23.29 110.8 23.29H104.9L107.03 21.07V32.51Z" fill="white"/>
<path id="Vector_4" d="M130.12 39.88C128.49 39.88 127.03 39.53 125.76 38.84C124.48 38.15 123.48 37.2 122.75 36C122.02 34.8 121.66 33.43 121.66 31.9C121.66 30.35 122.02 28.97 122.75 27.77C123.48 26.57 124.48 25.63 125.76 24.95C127.04 24.27 128.49 23.93 130.12 23.93C131.77 23.93 133.24 24.27 134.53 24.95C135.82 25.63 136.82 26.57 137.55 27.77C138.28 28.97 138.64 30.35 138.64 31.9C138.64 33.46 138.28 34.83 137.55 36.02C136.82 37.21 135.81 38.15 134.53 38.84C133.24 39.54 131.78 39.88 130.12 39.88ZM130.12 36.2C130.89 36.2 131.56 36.03 132.15 35.7C132.74 35.36 133.21 34.87 133.56 34.22C133.92 33.57 134.09 32.8 134.09 31.92C134.09 31.02 133.91 30.25 133.56 29.62C133.2 28.99 132.73 28.5 132.15 28.17C131.56 27.83 130.9 27.67 130.15 27.67C129.4 27.67 128.73 27.84 128.13 28.17C127.53 28.51 127.06 28.99 126.7 29.62C126.34 30.25 126.17 31.02 126.17 31.92C126.17 32.8 126.35 33.57 126.7 34.22C127.06 34.87 127.53 35.37 128.13 35.7C128.73 36.03 129.39 36.2 130.12 36.2Z" fill="white"/>
<path id="Vector_5" d="M148.99 39.88C147.36 39.88 145.9 39.53 144.63 38.84C143.35 38.15 142.35 37.2 141.62 36C140.89 34.8 140.53 33.43 140.53 31.9C140.53 30.35 140.89 28.97 141.62 27.77C142.35 26.57 143.35 25.63 144.63 24.95C145.91 24.27 147.36 23.93 148.99 23.93C150.64 23.93 152.11 24.27 153.4 24.95C154.69 25.63 155.69 26.57 156.42 27.77C157.15 28.97 157.51 30.35 157.51 31.9C157.51 33.46 157.15 34.83 156.42 36.02C155.69 37.21 154.68 38.15 153.4 38.84C152.11 39.54 150.64 39.88 148.99 39.88ZM148.99 36.2C149.76 36.2 150.43 36.03 151.02 35.7C151.61 35.36 152.08 34.87 152.43 34.22C152.79 33.57 152.96 32.8 152.96 31.92C152.96 31.02 152.78 30.25 152.43 29.62C152.07 28.99 151.6 28.5 151.02 28.17C150.43 27.83 149.77 27.67 149.02 27.67C148.27 27.67 147.6 27.84 147 28.17C146.4 28.51 145.93 28.99 145.57 29.62C145.21 30.25 145.04 31.02 145.04 31.92C145.04 32.8 145.22 33.57 145.57 34.22C145.93 34.87 146.4 35.37 147 35.7C147.6 36.03 148.26 36.2 148.99 36.2Z" fill="white"/>
<path id="Vector_6" d="M160.51 39.65V18.29H165V39.66H160.51V39.65Z" fill="white"/>
</g>
</g>
<g id="Group_4">
<path id="Vector_7" d="M25 20C22.24 20 20 22.24 20 25C20 27.76 22.24 30 25 30C27.76 30 30 27.76 30 25C30 22.24 27.76 20 25 20Z" fill="#F7931E"/>
<path id="Vector_8" d="M41 19.92V25C41 33.82 33.82 41 25 41C16.18 41 9 33.82 9 25C9 16.18 16.18 9 25 9H41V0H25C11.19 0 0 11.19 0 25C0 31.9 2.8 38.16 7.32 42.68C11.84 47.2 18.1 50 25 50C31.9 50 38.16 47.2 42.68 42.68C47.2 38.16 50 31.9 50 25V19.92H41Z" fill="#129DDB"/>
</g>
</g>
</g>
<defs>
<clipPath id="clip0_405_2660">
<rect width="165" height="50" fill="white"/>
</clipPath>
</defs>
</svg>
