<svg width="32" height="32" viewBox="0 0 32 32" fill="none" xmlns="http://www.w3.org/2000/svg">
<g id="Twitter">
<rect width="32" height="32" rx="8" fill="white" fill-opacity="0.1"/>
<path id="Vector" d="M23.9999 23.9246C22.4396 23.9246 20.9812 23.9337 19.5236 23.9105C19.3732 23.908 19.1837 23.7418 19.0851 23.6029C17.7618 21.7504 16.4521 19.8888 15.1382 18.0298C15.0592 17.9173 14.975 17.8089 14.8671 17.6617C14.2034 18.4102 13.5583 19.1346 12.9166 19.8615C11.8007 21.1252 10.695 22.3971 9.56384 23.6475C9.42871 23.7964 9.1695 23.8758 8.95448 23.9105C8.68252 23.9552 8.39696 23.9213 8.00006 23.9213C10.1316 21.504 12.1968 19.1627 14.2739 16.8075C12.1968 13.87 10.1316 10.9482 8.03236 7.97927C8.18958 7.96439 8.29327 7.94619 8.39611 7.94619C9.72787 7.94289 11.0588 7.93379 12.3889 7.95446C12.5605 7.95695 12.79 8.08017 12.8894 8.21828C14.1311 9.94174 15.3541 11.6793 16.5822 13.4118C16.6765 13.5458 16.7759 13.6764 16.8941 13.8385C17.6403 12.9958 18.361 12.1854 19.0791 11.3724C20.0199 10.3073 20.9531 9.23631 21.9067 8.18106C22.0189 8.05701 22.2279 7.97349 22.4022 7.95281C22.7073 7.91642 23.0192 7.94289 23.428 7.94289C23.1144 8.30842 22.8543 8.62102 22.5857 8.92536C20.9616 10.7621 19.3383 12.6005 17.7049 14.4298C17.517 14.6399 17.5374 14.7681 17.6938 14.9872C19.6902 17.7924 21.6738 20.6058 23.66 23.4176C23.7603 23.5607 23.8555 23.7087 23.9999 23.9246ZM9.99388 8.95513C13.2778 13.5987 16.4989 18.1546 19.7233 22.7072C19.7828 22.7908 19.8865 22.9008 19.9715 22.9024C20.6259 22.9189 21.2812 22.9115 22.0104 22.9115C21.8752 22.7089 21.7954 22.5832 21.7095 22.4616C20.6829 21.0111 19.6545 19.5613 18.6295 18.1108C16.5465 15.1642 14.4651 12.2151 12.3778 9.27104C12.2886 9.14534 12.1466 8.97415 12.0217 8.96836C11.3766 8.93859 10.7299 8.95513 9.99388 8.95513Z" fill="white"/>
</g>
</svg>
